<?xml version="1.0" standalone="no"?>
<!DOCTYPE svg PUBLIC "-//W3C//DTD SVG 20010904//EN"
 "http://www.w3.org/TR/2001/REC-SVG-20010904/DTD/svg10.dtd">
<svg version="1.0" xmlns="http://www.w3.org/2000/svg"
 width="512.000000pt" height="512.000000pt" viewBox="0 0 512.000000 512.000000"
 preserveAspectRatio="xMidYMid meet">
<metadata>
Created by potrace 1.14, written by Peter Selinger 2001-2017
</metadata>
<g transform="translate(0.000000,512.000000) scale(0.100000,-0.100000)"
fill="#000000" stroke="none">
<path d="M1950 4083 c0 -4 -177 -8 -393 -7 -292 0 -410 -3 -462 -14 -38 -7
-79 -14 -90 -16 -32 -5 -115 -46 -179 -89 -131 -88 -219 -211 -275 -386 -20
-62 -20 -84 -21 -955 l0 -891 24 -85 c33 -117 58 -169 118 -241 15 -17 25 -36
22 -41 -3 -5 0 -7 8 -6 7 2 12 -3 10 -10 -1 -6 1 -11 6 -10 4 2 21 -10 37 -25
47 -44 156 -113 200 -126 22 -7 47 -15 55 -18 56 -22 133 -31 271 -31 100 -1
145 -5 157 -14 12 -10 14 -10 8 0 -6 9 20 12 116 12 68 0 507 1 976 3 563 1
852 -1 852 -8 0 -6 4 -5 8 1 7 11 83 30 110 27 6 0 12 3 12 8 0 5 5 9 11 9 25
0 137 60 174 93 22 19 46 33 55 30 10 -3 11 -2 3 4 -9 6 -5 17 16 38 15 17 36
43 46 58 10 15 24 26 31 23 8 -3 11 0 8 8 -3 7 9 28 26 45 16 18 30 36 30 40
0 4 8 14 18 23 17 16 29 29 91 106 18 23 37 39 42 36 5 -3 7 1 4 8 -5 15 59
90 69 80 4 -3 4 2 0 13 -6 14 -4 17 9 12 10 -4 14 -2 11 6 -2 7 11 28 28 49
18 20 45 51 60 70 14 18 35 43 45 55 10 12 29 36 43 53 14 18 34 42 46 54 11
12 29 34 39 49 9 15 22 24 28 20 5 -3 7 -1 3 5 -3 6 0 16 7 24 7 7 30 36 52
63 22 28 54 65 72 83 18 18 32 34 30 36 -1 3 7 15 19 28 11 14 29 38 39 56 10
17 22 29 27 26 5 -3 8 -2 7 3 -4 21 2 34 13 27 7 -4 8 -3 4 4 -4 6 1 36 9 67
16 55 17 140 1 195 -4 14 -8 31 -8 38 -1 6 -5 12 -9 12 -4 0 -10 8 -14 19 -3
10 -15 29 -25 42 -38 45 -105 122 -140 160 -19 20 -55 61 -80 89 -25 29 -56
64 -70 79 -14 15 -50 55 -80 90 -30 35 -63 71 -72 80 -10 8 -18 21 -18 28 0 7
-7 13 -15 13 -8 0 -15 3 -15 8 0 4 -12 21 -27 38 -41 45 -138 155 -163 184
-12 14 -40 46 -63 71 -23 25 -64 71 -92 103 -84 97 -143 153 -175 166 -16 7
-30 16 -30 21 0 5 -3 8 -7 8 -5 -1 -10 0 -13 1 -3 1 -12 3 -20 5 -8 3 -53 16
-100 30 -47 15 -100 27 -117 27 -21 0 -30 4 -26 11 4 6 1 7 -8 2 -20 -13 -209
-13 -209 0 0 6 -3 7 -8 0 -10 -14 -305 -14 -314 0 -5 7 -8 7 -8 0 0 -14 -190
-14 -190 0 0 7 -3 6 -8 0 -9 -14 -265 -13 -274 0 -5 7 -8 7 -8 0 0 -12 -349
-13 -368 -1 -6 4 -12 4 -12 -1z"/>
<path d="M1395 1051 c-3 -5 -2 -12 3 -15 5 -3 9 1 9 9 0 17 -3 19 -12 6z"/>
<path d="M3415 1049 c-4 -6 -5 -12 -2 -15 2 -3 7 2 10 11 7 17 1 20 -8 4z"/>
</g>
</svg>
